# xmcd CD database file
#
# Track frame offsets:
#	150
#	13846
#	30942
#	44256
#	57865
#	74219
#	93198
#	103638
#	124637
#	138530
#	154581
#	167331
#	181287
#	190272
#	203924
#	226692
#	244997
#	270346
#	282483
#
# Disc length: 4037 seconds
#
# Revision: 0
# Processed by: cddbd v1.5.2PL0 Copyright (c) Steve Scherf et al.
# Submitted via: CDex 1.70beta2
#
DISCID=020fc313
DTITLE=Jump Cats - Jump Cats
DYEAR=2002
DGENRE=Blues
TTITLE0=Boogie Woogie Bugle Boy
TTITLE1=Ain't Nobobdy Here But Us Chickens
TTITLE2=Whistle Stop Mama
TTITLE3=Champagne
TTITLE4=In the Mood
TTITLE5=Hesitation Blues
TTITLE6=Stop, Look and Listen
TTITLE7=Buzz Me Blues
TTITLE8=Change My Mind
TTITLE9=Sing Sing Sing
TTITLE10=They're Red Hot
TTITLE11=Fever
TTITLE12=Till the Well Runs Dry
TTITLE13=Choo Choo Ch' Boogie
TTITLE14=Since I Fell For You
TTITLE15=Flip, Flop and Fly
TTITLE16=She Caught the Katy
TTITLE17=Mack the Knife
TTITLE18=Jump, Jive and Wail
EXTD=YEAR: 2002
EXTT0=
EXTT1=
EXTT2=
EXTT3=
EXTT4=
EXTT5=
EXTT6=
EXTT7=
EXTT8=
EXTT9=
EXTT10=
EXTT11=
EXTT12=
EXTT13=
EXTT14=
EXTT15=
EXTT16=
EXTT17=
EXTT18=
PLAYORDER=
